<?xml version="1.0" encoding="UTF-8"?>
<svg xmlns="http://www.w3.org/2000/svg" width="1582.5" height="302" viewBox="0 0 1582.5 302" style="font-family: sans-serif;">
  <defs>
    <marker id="arrowhead" markerWidth="10" markerHeight="7" refX="10" refY="3.5" orient="auto">
      <polygon points="0 0, 10 3.5, 0 7" fill="#333"/>
    </marker>
  </defs>
  <g transform="translate(40, 144.75)" id="input_node" class="component">
    <rect width="140" height="80" fill="#ffffff" stroke="#333" stroke-width="2" rx="5"/>
    <text x="70" y="15" text-anchor="middle" font-size="10px" fill="#000">&lt;&lt;Component&gt;&gt;</text>
    <text x="70" y="40" text-anchor="middle" dominant-baseline="middle" font-size="12px" fill="#000">Input</text>
    <line x1="140" y1="32.5" x2="170" y2="32.5" stroke="#333" stroke-width="1.5"/>
    <circle cx="176" cy="32.5" r="6" fill="#ffffff" stroke="#333" stroke-width="1.5"/>
    <text x="187" y="35.5" text-anchor="start" font-size="10px" fill="#000">IInput</text>
    <line x1="140" y1="47.5" x2="170" y2="47.5" stroke="#333" stroke-width="1.5"/>
    <g transform="translate(176, 47.5) rotate(0)">
      <path d="M 0 -6 A 6 6 0 0 0 0 6" fill="none" stroke="#333" stroke-width="1.5"/>
    </g>
    <text x="187" y="50.5" text-anchor="start" font-size="10px" fill="#000">ICtrl</text>
    <rect x="132.5" y="25" width="15" height="30" fill="#ffffff" stroke="#333" stroke-width="1" class="port"/>
    <g transform="translate(115, 5)">
      <rect x="0" y="0" width="16" height="16" fill="#ffffff" stroke="#333" stroke-width="1"/>
      <rect x="-4" y="3" width="8" height="4" fill="#ffffff" stroke="#333" stroke-width="1"/>
      <rect x="-4" y="9" width="8" height="4" fill="#ffffff" stroke="#333" stroke-width="1"/>
    </g>
  </g>
  <g transform="translate(342.5, 40)" id="sub_main" class="subsystem">
    <rect width="897.5" height="222" fill="#f9f9f9" stroke="#333" stroke-width="2" rx="5"/>
    <text x="448.75" y="15" text-anchor="middle" font-size="10px" fill="#000">&lt;&lt;Subsystem&gt;&gt;</text>
    <text x="448.75" y="30" text-anchor="middle" dominant-baseline="auto" font-size="12px" fill="#000">Main Subsystem</text>
    <g transform="translate(355, 51)" id="proc_1" class="component">
      <rect width="160" height="120" fill="#ffffff" stroke="#333" stroke-width="2" rx="5"/>
      <text x="80" y="15" text-anchor="middle" font-size="10px" fill="#000">&lt;&lt;Component&gt;&gt;</text>
      <text x="80" y="60" text-anchor="middle" dominant-baseline="middle" font-size="12px" fill="#000">Processor 1</text>
      <rect x="-7.5" y="86.25" width="15" height="15" fill="#ffffff" stroke="#333" stroke-width="1" class="port"/>
      <rect x="-7.5" y="52.5" width="15" height="15" fill="#ffffff" stroke="#333" stroke-width="1" class="port"/>
      <line x1="0" y1="26.25" x2="-30" y2="26.25" stroke="#333" stroke-width="1.5"/>
      <circle cx="-36" cy="26.25" r="6" fill="#ffffff" stroke="#333" stroke-width="1.5"/>
      <text x="-47" y="19.25" text-anchor="end" font-size="10px" fill="#000">IData</text>
      <rect x="-7.5" y="18.75" width="15" height="15" fill="#ffffff" stroke="#333" stroke-width="1" class="port"/>
      <rect x="152.5" y="52.5" width="15" height="15" fill="#ffffff" stroke="#333" stroke-width="1" class="port"/>
      <g transform="translate(135, 5)">
        <rect x="0" y="0" width="16" height="16" fill="#ffffff" stroke="#333" stroke-width="1"/>
        <rect x="-4" y="3" width="8" height="4" fill="#ffffff" stroke="#333" stroke-width="1"/>
        <rect x="-4" y="9" width="8" height="4" fill="#ffffff" stroke="#333" stroke-width="1"/>
      </g>
    </g>
    <g transform="translate(690, 61)" id="proc_2" class="component">
      <rect width="160" height="100" fill="#ffffff" stroke="#333" stroke-width="2" rx="5"/>
      <text x="80" y="15" text-anchor="middle" font-size="10px" fill="#000">&lt;&lt;Component&gt;&gt;</text>
      <text x="80" y="50" text-anchor="middle" dominant-baseline="middle" font-size="12px" fill="#000">Processor 2</text>
      <rect x="-7.5" y="42.5" width="15" height="15" fill="#ffffff" stroke="#333" stroke-width="1" class="port"/>
      <rect x="152.5" y="42.5" width="15" height="15" fill="#ffffff" stroke="#333" stroke-width="1" class="port"/>
      <g transform="translate(135, 5)">
        <rect x="0" y="0" width="16" height="16" fill="#ffffff" stroke="#333" stroke-width="1"/>
        <rect x="-4" y="3" width="8" height="4" fill="#ffffff" stroke="#333" stroke-width="1"/>
        <rect x="-4" y="9" width="8" height="4" fill="#ffffff" stroke="#333" stroke-width="1"/>
      </g>
    </g>
    <g transform="translate(40, 53.08333333333333)" id="deep_1" class="component">
      <rect width="140" height="80" fill="#ffffff" stroke="#333" stroke-width="2" rx="5"/>
      <text x="70" y="15" text-anchor="middle" font-size="10px" fill="#000">&lt;&lt;Component&gt;&gt;</text>
      <text x="70" y="40" text-anchor="middle" dominant-baseline="middle" font-size="12px" fill="#000">Deep Logic</text>
      <line x1="140" y1="24.166666666666668" x2="170" y2="24.166666666666668" stroke="#333" stroke-width="1.5"/>
      <g transform="translate(176, 24.166666666666668) rotate(0)">
        <path d="M 0 -6 A 6 6 0 0 0 0 6" fill="none" stroke="#333" stroke-width="1.5"/>
      </g>
      <text x="187" y="17.166666666666668" text-anchor="start" font-size="10px" fill="#000">IProcess</text>
      <rect x="132.5" y="16.666666666666668" width="15" height="15" fill="#ffffff" stroke="#333" stroke-width="1" class="port"/>
      <rect x="132.5" y="48.333333333333336" width="15" height="15" fill="#ffffff" stroke="#333" stroke-width="1" class="port"/>
      <g transform="translate(115, 5)">
        <rect x="0" y="0" width="16" height="16" fill="#ffffff" stroke="#333" stroke-width="1"/>
        <rect x="-4" y="3" width="8" height="4" fill="#ffffff" stroke="#333" stroke-width="1"/>
        <rect x="-4" y="9" width="8" height="4" fill="#ffffff" stroke="#333" stroke-width="1"/>
      </g>
    </g>
    <path d="M 522.5 111 L 682.5 111" fill="none" stroke="#333" stroke-width="2"/>
    <path d="M 347.5 77.25 L 187.5 77.25" fill="none" stroke="#333" stroke-width="2"/>
    <path d="M 187.5 108.91666666666666 L 267.5 108.91666666666666 L 267.5 111 L 347.5 111" fill="none" stroke="#333" stroke-width="2"/>
  </g>
  <g transform="translate(1402.5, 111)" id="output_node" class="component">
    <rect width="140" height="80" fill="#ffffff" stroke="#333" stroke-width="2" rx="5"/>
    <text x="70" y="15" text-anchor="middle" font-size="10px" fill="#000">&lt;&lt;Component&gt;&gt;</text>
    <text x="70" y="40" text-anchor="middle" dominant-baseline="middle" font-size="12px" fill="#000">Output</text>
    <rect x="-7.5" y="32.5" width="15" height="15" fill="#ffffff" stroke="#333" stroke-width="1" class="port"/>
    <g transform="translate(115, 5)">
      <rect x="0" y="0" width="16" height="16" fill="#ffffff" stroke="#333" stroke-width="1"/>
      <rect x="-4" y="3" width="8" height="4" fill="#ffffff" stroke="#333" stroke-width="1"/>
      <rect x="-4" y="9" width="8" height="4" fill="#ffffff" stroke="#333" stroke-width="1"/>
    </g>
  </g>
  <path d="M 187.5 184.75 L 690 184.75" fill="none" stroke="#333" stroke-width="2"/>
  <path d="M 187.5 184.75 L 247.5 184.75 L 247.5 80 L 945 80 L 945 151 L 1025 151" fill="none" stroke="#333" stroke-width="2"/>
  <path d="M 530 148.91666666666666 L 610 148.91666666666666 L 610 221 L 1305 221 L 1305 151 L 1395 151" fill="none" stroke="#333" stroke-width="2"/>
  <path d="M 1200 151 L 1395 151" fill="none" stroke="#333" stroke-width="2"/>
</svg>