<?xml version="1.0" encoding="UTF-8"?>
<svg xmlns="http://www.w3.org/2000/svg" width="1185" height="220" viewBox="0 0 1185 220" style="font-family: sans-serif;">
  <defs>
    <marker id="arrowhead" markerWidth="10" markerHeight="7" refX="10" refY="3.5" orient="auto">
      <polygon points="0 0, 10 3.5, 0 7" fill="#333"/>
    </marker>
  </defs>
  <g transform="translate(40, 80)" id="input_block" class="component">
    <rect width="140" height="80" fill="#ffffff" stroke="#333" stroke-width="2" rx="5"/>
    <text x="70" y="15" text-anchor="middle" font-size="10px" fill="#000">&lt;&lt;Component&gt;&gt;</text>
    <text x="70" y="40" text-anchor="middle" dominant-baseline="middle" font-size="12px" fill="#000">Input Block</text>
    <rect x="132.5" y="32.5" width="15" height="15" fill="#ffffff" stroke="#333" stroke-width="1" class="port"/>
    <g transform="translate(115, 5)">
      <rect x="0" y="0" width="16" height="16" fill="#ffffff" stroke="#333" stroke-width="1"/>
      <rect x="-4" y="3" width="8" height="4" fill="#ffffff" stroke="#333" stroke-width="1"/>
      <rect x="-4" y="9" width="8" height="4" fill="#ffffff" stroke="#333" stroke-width="1"/>
    </g>
  </g>
  <g transform="translate(342.5, 40)" id="process_subsystem" class="subsystem">
    <rect width="500" height="140" fill="#f9f9f9" stroke="#333" stroke-width="2" rx="5"/>
    <text x="250" y="15" text-anchor="middle" font-size="10px" fill="#000">&lt;&lt;Subsystem&gt;&gt;</text>
    <text x="250" y="30" text-anchor="middle" dominant-baseline="auto" font-size="12px" fill="#000">Processing Subsystem</text>
    <g transform="translate(27.5, 40)" id="filter" class="component">
      <rect width="140" height="80" fill="#ffffff" stroke="#333" stroke-width="2" rx="5"/>
      <text x="70" y="15" text-anchor="middle" font-size="10px" fill="#000">&lt;&lt;Component&gt;&gt;</text>
      <text x="70" y="40" text-anchor="middle" dominant-baseline="middle" font-size="12px" fill="#000">Filter</text>
      <rect x="-7.5" y="32.5" width="15" height="15" fill="#ffffff" stroke="#333" stroke-width="1" class="port"/>
      <rect x="132.5" y="32.5" width="15" height="15" fill="#ffffff" stroke="#333" stroke-width="1" class="port"/>
      <g transform="translate(115, 5)">
        <rect x="0" y="0" width="16" height="16" fill="#ffffff" stroke="#333" stroke-width="1"/>
        <rect x="-4" y="3" width="8" height="4" fill="#ffffff" stroke="#333" stroke-width="1"/>
        <rect x="-4" y="9" width="8" height="4" fill="#ffffff" stroke="#333" stroke-width="1"/>
      </g>
    </g>
    <g transform="translate(332.5, 40)" id="transform" class="component">
      <rect width="140" height="80" fill="#ffffff" stroke="#333" stroke-width="2" rx="5"/>
      <text x="70" y="15" text-anchor="middle" font-size="10px" fill="#000">&lt;&lt;Component&gt;&gt;</text>
      <text x="70" y="40" text-anchor="middle" dominant-baseline="middle" font-size="12px" fill="#000">Transform</text>
      <rect x="-7.5" y="32.5" width="15" height="15" fill="#ffffff" stroke="#333" stroke-width="1" class="port"/>
      <rect x="132.5" y="32.5" width="15" height="15" fill="#ffffff" stroke="#333" stroke-width="1" class="port"/>
      <g transform="translate(115, 5)">
        <rect x="0" y="0" width="16" height="16" fill="#ffffff" stroke="#333" stroke-width="1"/>
        <rect x="-4" y="3" width="8" height="4" fill="#ffffff" stroke="#333" stroke-width="1"/>
        <rect x="-4" y="9" width="8" height="4" fill="#ffffff" stroke="#333" stroke-width="1"/>
      </g>
    </g>
    <path d="M 175 80 L 325 80" fill="none" stroke="#333" stroke-width="2"/>
  </g>
  <g transform="translate(1005, 80)" id="output_block" class="component">
    <rect width="140" height="80" fill="#ffffff" stroke="#333" stroke-width="2" rx="5"/>
    <text x="70" y="15" text-anchor="middle" font-size="10px" fill="#000">&lt;&lt;Component&gt;&gt;</text>
    <text x="70" y="40" text-anchor="middle" dominant-baseline="middle" font-size="12px" fill="#000">Output Block</text>
    <rect x="-7.5" y="32.5" width="15" height="15" fill="#ffffff" stroke="#333" stroke-width="1" class="port"/>
    <g transform="translate(115, 5)">
      <rect x="0" y="0" width="16" height="16" fill="#ffffff" stroke="#333" stroke-width="1"/>
      <rect x="-4" y="3" width="8" height="4" fill="#ffffff" stroke="#333" stroke-width="1"/>
      <rect x="-4" y="9" width="8" height="4" fill="#ffffff" stroke="#333" stroke-width="1"/>
    </g>
  </g>
  <path d="M 187.5 120 L 362.5 120" fill="none" stroke="#333" stroke-width="2"/>
  <path d="M 822.5 120 L 997.5 120" fill="none" stroke="#333" stroke-width="2"/>
</svg>