<?xml version="1.0" encoding="UTF-8"?>
<svg xmlns="http://www.w3.org/2000/svg" width="1062" height="224" viewBox="0 0 1062 224" style="font-family: sans-serif;">
  <defs>
    <marker id="arrowhead" markerWidth="10" markerHeight="7" refX="10" refY="3.5" orient="auto">
      <polygon points="0 0, 10 3.5, 0 7" fill="#333"/>
    </marker>
  </defs>
  <g transform="translate(0, 0)" id="root" class="node">
    <g transform="translate(12, 12)" id="input_block" class="node">
      <rect width="240" height="200" fill="#ffffff" stroke="#333" stroke-width="2" rx="5"/>
      <text x="120" y="15" text-anchor="middle" font-size="12px" fill="#000">Input Block</text>
      <rect x="225" y="85" width="30" height="30" fill="#ffffff" stroke="#333" stroke-width="1" class="port"/>
      <g transform="translate(215, 5)">
        <rect x="0" y="0" width="20" height="16" fill="#ffffff" stroke="#333" stroke-width="1.5"/>
        <rect x="-4" y="3" width="8" height="4" fill="#ffffff" stroke="#333" stroke-width="1.5"/>
        <rect x="-4" y="9" width="8" height="4" fill="#ffffff" stroke="#333" stroke-width="1.5"/>
      </g>
    </g>
    <g transform="translate(302, 22)" id="process_subsystem" class="node">
      <rect width="458" height="160" fill="#f9f9f9" stroke="#333" stroke-width="2" rx="5"/>
      <text x="229" y="15" text-anchor="middle" font-size="12px" fill="#000">Processing Subsystem</text>
      <rect x="-15" y="75" width="30" height="30" fill="#ffffff" stroke="#333" stroke-width="1" class="port"/>
      <rect x="443" y="75" width="30" height="30" fill="#ffffff" stroke="#333" stroke-width="1" class="port"/>
      <g transform="translate(47, 40)" id="filter" class="node">
        <rect width="160" height="100" fill="#ffffff" stroke="#333" stroke-width="2" rx="5"/>
        <text x="80" y="15" text-anchor="middle" font-size="12px" fill="#000">Filter</text>
        <rect x="-12" y="38" width="24" height="24" fill="#ffffff" stroke="#333" stroke-width="1" class="port"/>
        <rect x="148" y="38" width="24" height="24" fill="#ffffff" stroke="#333" stroke-width="1" class="port"/>
        <g transform="translate(135, 5)">
          <rect x="0" y="0" width="20" height="16" fill="#ffffff" stroke="#333" stroke-width="1.5"/>
          <rect x="-4" y="3" width="8" height="4" fill="#ffffff" stroke="#333" stroke-width="1.5"/>
          <rect x="-4" y="9" width="8" height="4" fill="#ffffff" stroke="#333" stroke-width="1.5"/>
        </g>
      </g>
      <g transform="translate(251, 40)" id="transform" class="node">
        <rect width="160" height="100" fill="#ffffff" stroke="#333" stroke-width="2" rx="5"/>
        <text x="80" y="15" text-anchor="middle" font-size="12px" fill="#000">Transform</text>
        <rect x="-12" y="38" width="24" height="24" fill="#ffffff" stroke="#333" stroke-width="1" class="port"/>
        <rect x="148" y="38" width="24" height="24" fill="#ffffff" stroke="#333" stroke-width="1" class="port"/>
        <g transform="translate(135, 5)">
          <rect x="0" y="0" width="20" height="16" fill="#ffffff" stroke="#333" stroke-width="1.5"/>
          <rect x="-4" y="3" width="8" height="4" fill="#ffffff" stroke="#333" stroke-width="1.5"/>
          <rect x="-4" y="9" width="8" height="4" fill="#ffffff" stroke="#333" stroke-width="1.5"/>
        </g>
      </g>
      <g transform="translate(433, 5)">
        <rect x="0" y="0" width="20" height="16" fill="#ffffff" stroke="#333" stroke-width="1.5"/>
        <rect x="-4" y="3" width="8" height="4" fill="#ffffff" stroke="#333" stroke-width="1.5"/>
        <rect x="-4" y="9" width="8" height="4" fill="#ffffff" stroke="#333" stroke-width="1.5"/>
      </g>
      <path d="M 219 90 L 239 90" fill="none" stroke="#333" stroke-width="2" marker-end="url(#arrowhead)"/>
    </g>
    <g transform="translate(810, 32)" id="output_block" class="node">
      <rect width="240" height="160" fill="#ffffff" stroke="#333" stroke-width="2" rx="5"/>
      <text x="120" y="15" text-anchor="middle" font-size="12px" fill="#000">Output Block</text>
      <rect x="-15" y="65" width="30" height="30" fill="#ffffff" stroke="#333" stroke-width="1" class="port"/>
      <g transform="translate(215, 5)">
        <rect x="0" y="0" width="20" height="16" fill="#ffffff" stroke="#333" stroke-width="1.5"/>
        <rect x="-4" y="3" width="8" height="4" fill="#ffffff" stroke="#333" stroke-width="1.5"/>
        <rect x="-4" y="9" width="8" height="4" fill="#ffffff" stroke="#333" stroke-width="1.5"/>
      </g>
    </g>
    <path d="M 267 112 L 287 112" fill="none" stroke="#333" stroke-width="2" marker-end="url(#arrowhead)"/>
    <path d="M -15 90 L 35 90" fill="none" stroke="#333" stroke-width="2" marker-end="url(#arrowhead)"/>
    <path d="M 423 90 L 473 90" fill="none" stroke="#333" stroke-width="2" marker-end="url(#arrowhead)"/>
    <path d="M 775 112 L 795 112" fill="none" stroke="#333" stroke-width="2" marker-end="url(#arrowhead)"/>
  </g>
</svg>