<?xml version="1.0" encoding="UTF-8"?>
<svg xmlns="http://www.w3.org/2000/svg" width="1307.5" height="497.66666666666663" viewBox="0 0 1307.5 497.66666666666663" style="font-family: sans-serif;">
  <defs>
    <marker id="arrowhead" markerWidth="10" markerHeight="7" refX="10" refY="3.5" orient="auto">
      <polygon points="0 0, 10 3.5, 0 7" fill="#333"/>
    </marker>
  </defs>
  <g transform="translate(40, 86.66666666666663)" id="input_node" class="component">
    <rect width="140" height="80" fill="#ffffff" stroke="#333" stroke-width="2" rx="5"/>
    <text x="70" y="15" text-anchor="middle" font-size="10px" fill="#000">&lt;&lt;Component&gt;&gt;</text>
    <text x="70" y="40" text-anchor="middle" dominant-baseline="middle" font-size="12px" fill="#000">Input</text>
    <line x1="140" y1="32.5" x2="170" y2="32.5" stroke="#333" stroke-width="1.5"/>
    <circle cx="176" cy="32.5" r="6" fill="#ffffff" stroke="#333" stroke-width="1.5"/>
    <text x="187" y="35.5" text-anchor="start" font-size="10px" fill="#000">IInput</text>
    <line x1="140" y1="47.5" x2="170" y2="47.5" stroke="#333" stroke-width="1.5"/>
    <g transform="translate(176, 47.5) rotate(0)">
      <path d="M 0 -6 A 6 6 0 0 0 0 6" fill="none" stroke="#333" stroke-width="1.5"/>
    </g>
    <text x="187" y="50.5" text-anchor="start" font-size="10px" fill="#000">ICtrl</text>
    <rect x="132.5" y="25" width="15" height="30" fill="#ffffff" stroke="#333" stroke-width="1" class="port"/>
    <g transform="translate(115, 5)">
      <rect x="0" y="0" width="16" height="16" fill="#ffffff" stroke="#333" stroke-width="1"/>
      <rect x="-4" y="3" width="8" height="4" fill="#ffffff" stroke="#333" stroke-width="1"/>
      <rect x="-4" y="9" width="8" height="4" fill="#ffffff" stroke="#333" stroke-width="1"/>
    </g>
  </g>
  <g transform="translate(342.5, 40)" id="sub_main" class="subsystem">
    <rect width="622.5" height="417.66666666666663" fill="#f9f9f9" stroke="#333" stroke-width="2" rx="5"/>
    <text x="311.25" y="15" text-anchor="middle" font-size="10px" fill="#000">&lt;&lt;Subsystem&gt;&gt;</text>
    <text x="311.25" y="30" text-anchor="middle" dominant-baseline="auto" font-size="12px" fill="#000">Main Subsystem</text>
    <g transform="translate(402.5, 79.99999999999997)" id="proc_1" class="component">
      <rect width="160" height="120" fill="#ffffff" stroke="#333" stroke-width="2" rx="5"/>
      <text x="80" y="15" text-anchor="middle" font-size="10px" fill="#000">&lt;&lt;Component&gt;&gt;</text>
      <text x="80" y="60" text-anchor="middle" dominant-baseline="middle" font-size="12px" fill="#000">Processor 1</text>
      <rect x="-7.5" y="12" width="15" height="15" fill="#ffffff" stroke="#333" stroke-width="1" class="port"/>
      <rect x="-7.5" y="66" width="15" height="15" fill="#ffffff" stroke="#333" stroke-width="1" class="port"/>
      <line x1="0" y1="46.5" x2="-30" y2="46.5" stroke="#333" stroke-width="1.5"/>
      <circle cx="-36" cy="46.5" r="6" fill="#ffffff" stroke="#333" stroke-width="1.5"/>
      <text x="-47" y="39.5" text-anchor="end" font-size="10px" fill="#000">IData</text>
      <rect x="-7.5" y="39" width="15" height="15" fill="#ffffff" stroke="#333" stroke-width="1" class="port"/>
      <rect x="-7.5" y="93" width="15" height="15" fill="#ffffff" stroke="#333" stroke-width="1" class="port"/>
      <g transform="translate(135, 5)">
        <rect x="0" y="0" width="16" height="16" fill="#ffffff" stroke="#333" stroke-width="1"/>
        <rect x="-4" y="3" width="8" height="4" fill="#ffffff" stroke="#333" stroke-width="1"/>
        <rect x="-4" y="9" width="8" height="4" fill="#ffffff" stroke="#333" stroke-width="1"/>
      </g>
    </g>
    <g transform="translate(67.5, 257.66666666666663)" id="proc_2" class="component">
      <rect width="160" height="100" fill="#ffffff" stroke="#333" stroke-width="2" rx="5"/>
      <text x="80" y="15" text-anchor="middle" font-size="10px" fill="#000">&lt;&lt;Component&gt;&gt;</text>
      <text x="80" y="50" text-anchor="middle" dominant-baseline="middle" font-size="12px" fill="#000">Processor 2</text>
      <rect x="-7.5" y="42.5" width="15" height="15" fill="#ffffff" stroke="#333" stroke-width="1" class="port"/>
      <rect x="152.5" y="42.5" width="15" height="15" fill="#ffffff" stroke="#333" stroke-width="1" class="port"/>
      <g transform="translate(135, 5)">
        <rect x="0" y="0" width="16" height="16" fill="#ffffff" stroke="#333" stroke-width="1"/>
        <rect x="-4" y="3" width="8" height="4" fill="#ffffff" stroke="#333" stroke-width="1"/>
        <rect x="-4" y="9" width="8" height="4" fill="#ffffff" stroke="#333" stroke-width="1"/>
      </g>
    </g>
    <g transform="translate(87.5, 97.66666666666663)" id="deep_1" class="component">
      <rect width="140" height="80" fill="#ffffff" stroke="#333" stroke-width="2" rx="5"/>
      <text x="70" y="15" text-anchor="middle" font-size="10px" fill="#000">&lt;&lt;Component&gt;&gt;</text>
      <text x="70" y="40" text-anchor="middle" dominant-baseline="middle" font-size="12px" fill="#000">Deep Logic</text>
      <line x1="140" y1="24.166666666666668" x2="170" y2="24.166666666666668" stroke="#333" stroke-width="1.5"/>
      <g transform="translate(176, 24.166666666666668) rotate(0)">
        <path d="M 0 -6 A 6 6 0 0 0 0 6" fill="none" stroke="#333" stroke-width="1.5"/>
      </g>
      <text x="187" y="17.166666666666668" text-anchor="start" font-size="10px" fill="#000">IProcess</text>
      <rect x="132.5" y="16.666666666666668" width="15" height="15" fill="#ffffff" stroke="#333" stroke-width="1" class="port"/>
      <rect x="132.5" y="48.333333333333336" width="15" height="15" fill="#ffffff" stroke="#333" stroke-width="1" class="port"/>
      <g transform="translate(115, 5)">
        <rect x="0" y="0" width="16" height="16" fill="#ffffff" stroke="#333" stroke-width="1"/>
        <rect x="-4" y="3" width="8" height="4" fill="#ffffff" stroke="#333" stroke-width="1"/>
        <rect x="-4" y="9" width="8" height="4" fill="#ffffff" stroke="#333" stroke-width="1"/>
      </g>
    </g>
    <path d="M 395 126.49999999999997 L 315 126.49999999999997 L 315 121.83333333333329 L 235 121.83333333333329" fill="none" stroke="#333" stroke-width="2"/>
    <path d="M 235 153.49999999999997 L 395 153.49999999999997" fill="none" stroke="#333" stroke-width="2"/>
  </g>
  <g transform="translate(1127.5, 209.99999999999997)" id="output_node" class="component">
    <rect width="140" height="80" fill="#ffffff" stroke="#333" stroke-width="2" rx="5"/>
    <text x="70" y="15" text-anchor="middle" font-size="10px" fill="#000">&lt;&lt;Component&gt;&gt;</text>
    <text x="70" y="40" text-anchor="middle" dominant-baseline="middle" font-size="12px" fill="#000">Output</text>
    <rect x="-7.5" y="32.5" width="15" height="15" fill="#ffffff" stroke="#333" stroke-width="1" class="port"/>
    <g transform="translate(115, 5)">
      <rect x="0" y="0" width="16" height="16" fill="#ffffff" stroke="#333" stroke-width="1"/>
      <rect x="-4" y="3" width="8" height="4" fill="#ffffff" stroke="#333" stroke-width="1"/>
      <rect x="-4" y="9" width="8" height="4" fill="#ffffff" stroke="#333" stroke-width="1"/>
    </g>
  </g>
  <path d="M 187.5 126.66666666666663 L 657.5 126.66666666666663 L 657.5 139.49999999999997 L 737.5 139.49999999999997" fill="none" stroke="#333" stroke-width="2"/>
  <path d="M 187.5 126.66666666666663 L 247.5 126.66666666666663 L 247.5 347.66666666666663 L 402.5 347.66666666666663" fill="none" stroke="#333" stroke-width="2"/>
  <path d="M 577.5 193.49999999999997 L 657.5 193.49999999999997 L 657.5 249.99999999999997 L 1120 249.99999999999997" fill="none" stroke="#333" stroke-width="2"/>
  <path d="M 577.5 347.66666666666663 L 1030 347.66666666666663 L 1030 249.99999999999997 L 1120 249.99999999999997" fill="none" stroke="#333" stroke-width="2"/>
</svg>